<svg xml:space="preserve" xmlns="http://www.w3.org/2000/svg" viewBox="506.88 130.37 905.88 820.7"><style>.st2{fill:#fff}</style><path class="st2" d="M848.13 616.88c29.87-8 59.62-15.97 89.37-23.94 2.2 4.38 4.08 8.56 6.34 12.52 9.42 16.53 22.37 28.72 41.51 33.03 8.99 2.02 18.03 2.07 26.94-.36 11.45-3.12 17.59-12.41 15.61-23.21-.85-4.62-3.41-8.19-6.92-11.18-7.81-6.65-17-10.91-26.42-14.54-25.83-9.95-51.02-21.21-75.13-34.86-19.67-11.14-36.29-25.43-46.98-45.69-16.1-30.52-14.84-71.15 11.29-102.95 20.3-24.7 46.73-38.91 77.85-44.32 34.35-5.97 67.26-1.08 97.98 15.84 31.04 17.1 51.66 43.08 63.8 76.1.19.52.24 1.09.44 2.01-30.54 8.39-60.97 16.75-91.55 25.16-1.23-3.1-2.1-5.44-3.07-7.73-9.1-21.43-29.05-33.56-52.13-31.65-5.23.43-10.13 1.98-14.35 5.24-7.85 6.06-8.93 16.07-2 23.15 3.74 3.81 8.13 7.11 12.64 10 4.71 3.02 9.83 5.43 14.91 7.81 22.63 10.61 45.48 20.75 67.91 31.77 17.76 8.73 33.24 20.71 46.29 35.79 34.57 39.95 26.22 94.04-2.2 126.44-18.28 20.84-41.36 33.27-68.24 38.57-31.97 6.31-63.71 5.35-94.79-5.31-24.18-8.29-43.36-23.58-59.44-43.08-12.92-15.67-22.29-33.32-29.04-52.41-.21-.63-.36-1.28-.62-2.2zM735.65 594.92c30.6 7.94 61.31 15.91 92.78 24.08-4.06 8.12-7.6 16.03-11.84 23.56-23.94 42.53-60.48 67.82-107.92 77.54-36.33 7.45-71.93 4.02-105.75-11.17-38.59-17.33-64.54-47.2-80.84-85.84-9.21-21.82-13.69-44.67-14.82-68.23-1.45-30.2 1.38-59.84 12.05-88.39 13.4-35.86 35.38-64.92 68.39-84.94 22.17-13.45 46.43-20.55 72.24-22.51 25.26-1.92 50.01.58 73.84 9.46 35.2 13.1 61.54 36.71 80.44 68.9 2.72 4.64 5.14 9.46 7.88 14.52-1.23.4-2.15.75-3.09 1-29.27 7.68-92.17 24.02-92.17 24.02-9.94-14.53-26.84-23.87-44.58-26.06-13.92-2.03-27.5-.41-40.27 5.84-14.89 7.28-23.75 19.85-29.68 34.77-7.58 19.06-9.07 38.99-7.84 59.23.86 14.19 3.57 27.97 9.91 40.85 12.38 25.15 35.69 38.77 63.71 37.24 15.99-.87 30.67-5.48 43.21-15.73 2.91-2.37 5.48-5.25 7.81-8.2 2.33-2.98 4.18-6.31 6.54-9.94zM1172 715.91V365.52h94.05V626.9h146.71v89c-80.28.01-160.37.01-240.76.01z"></path><path class="st2" d="M1367.5 587.46h-27.3c.47-5.48.95-10.79 1.39-16.11 1.92-22.83 1.58-45.64-.68-68.44-4.37-44.27-15.55-86.75-35.4-126.54-55.44-111.17-143.81-181.21-264.93-209.27-37.73-8.74-76.17-10.77-114.7-6.94-104 10.34-189.98 55.55-258.1 134.73-6.58 7.65-13.9 17.53-20.01 25.57 0 0-37.1 8.7-38.76 9.06 38.99-63.48 90.07-113.36 155-148.33 97.07-52.29 199.62-64.63 305.69-35.12 211.23 58.74 321.19 260.89 297.8 441.39zM609.58 752.78c5.93 1.38 38.17 8.47 38.17 8.47 28.17 39.24 64 74.38 104.52 100.68 44.07 28.6 92.01 47.33 143.83 56.14 32.78 5.57 65.75 6.99 98.83 3.86 80.77-7.65 152.15-37.81 214.01-90.31 25.26-21.44 47.18-45.94 66.08-73.15.65-.94 1.32-1.88 2.06-2.93h32.26c-56.56 96.09-177.76 191.97-339.8 195.4-170.5 3.61-299.35-94.53-359.96-198.16z"></path></svg>