<svg xml:space="preserve" xmlns="http://www.w3.org/2000/svg" viewBox="437.52 71.72 1043.18 936.02"><style>.st5{fill:#fff}</style><linearGradient id="a" x1="1097.5" x2="865.56" y1="988.57" y2="122.89" gradientUnits="userSpaceOnUse"><stop stop-color="#00469E" offset="0"></stop><stop stop-color="#CE2E3A" offset="1"></stop></linearGradient><circle cx="981.54" cy="555.73" r="444" style="fill:none;stroke:url(#a);stroke-width:8;stroke-miterlimit:10"></circle><linearGradient id="b" x1="1087.5" x2="855.56" y1="956.57" y2="90.89" gradientUnits="userSpaceOnUse"><stop stop-color="#00469E" offset="0"></stop><stop stop-color="#CE2E3A" offset="1"></stop></linearGradient><circle cx="971.54" cy="523.73" r="444" fill="none" stroke="url(#b)" stroke-miterlimit="10" stroke-width="8"></circle><linearGradient id="c" x1="1055" x2="823.06" y1="978.84" y2="113.16" gradientUnits="userSpaceOnUse"><stop stop-color="#00469E" offset="0"></stop><stop stop-color="#CE2E3A" offset="1"></stop></linearGradient><circle cx="939.04" cy="546" r="444" fill="none" stroke="url(#c)" stroke-miterlimit="10" stroke-width="8"></circle><path class="st5" d="m692.57 466.45-2.31-1.15c-7.5-10.39-16.73-17.89-28.27-22.5-11.54-4.62-22.5-6.92-33.47-6.92-25.96 0-45.58 9.23-58.85 27.7s-20.19 43.85-20.19 75.59c0 32.89 7.5 58.28 22.5 76.16 15 17.89 34.62 26.54 58.85 26.54 14.42 0 28.27-3.46 40.97-9.81s22.5-16.16 28.85-29.43l106.74 27.7c-7.5 18.46-16.73 35.2-28.27 50.2s-24.81 27.7-40.39 38.08c-15.58 10.39-32.31 18.46-50.78 23.66-18.46 5.77-37.5 8.66-57.7 8.66-27.7 0-53.08-5.19-76.74-14.42-23.66-9.81-43.85-24.23-61.16-42.7s-30.58-40.39-40.39-66.35-14.42-54.81-14.42-86.55 4.62-60.58 14.42-86.55c9.81-25.96 23.08-47.89 40.39-66.35s37.5-32.89 61.16-42.7 49.04-15 76.74-15c38.66 0 72.7 9.23 102.13 28.27s51.93 45.58 68.09 79.63l-107.9 28.24zM1045.7 469.92h-3.46c-5.19-16.16-13.27-27.7-24.23-34.62s-21.93-10.39-32.89-10.39c-9.81 0-17.31 2.31-22.5 6.35s-7.5 8.66-7.5 13.85 1.73 9.81 5.77 13.85 9.23 8.08 16.16 12.12 15.58 8.08 25.39 12.12 20.77 9.81 32.89 15c13.85 6.35 27.7 12.69 40.97 20.19s25.39 16.16 36.35 26.54c10.96 10.39 19.62 21.93 26.54 35.2s10.39 28.27 10.39 45.01c0 17.89-3.46 34.62-10.96 50.2s-17.89 28.85-31.16 40.39-29.43 20.2-47.89 26.54c-18.46 5.77-39.24 8.66-61.74 8.66-21.35 0-40.97-2.89-58.85-8.66-17.89-5.19-33.47-13.85-47.31-24.81s-25.96-24.23-36.35-39.24-18.46-31.74-24.81-50.2l103.28-27.7c2.88 6.92 6.35 13.85 10.39 20.19s9.23 12.12 15 17.31 12.12 9.23 19.62 12.12c7.5 2.88 15.58 4.62 24.23 4.62 12.12 0 20.77-2.31 26.54-6.92 5.77-4.62 8.65-10.39 8.65-17.31 0-6.35-2.31-11.54-6.35-15.58s-9.81-8.08-17.89-12.12-17.31-8.08-28.27-12.12-22.5-9.23-35.2-15c-13.27-6.35-25.96-13.27-38.66-20.19-12.69-6.92-23.66-15.58-33.47-25.39s-17.31-20.77-23.08-33.47-8.65-27.7-8.65-45.58c0-14.42 3.46-28.85 10.39-43.27s16.73-27.12 29.43-38.66 28.27-20.77 46.16-27.7 38.08-10.39 60.01-10.39c19.04 0 36.93 2.88 53.66 8.65s31.74 13.27 45.01 23.08 24.81 21.35 34.62 35.2 17.31 28.27 22.5 43.85l-102.73 28.28zM1480.7 639.55v102.71h-277.54v-403.9h108.48v301.19h169.06z"></path></svg>