<svg xmlns="http://www.w3.org/2000/svg" style="enable-background:new 0 0 1920 1080" xml:space="preserve" viewBox="552.88 48.42 817.8 905.08"><style>.st0{display:none}.st3{display:inline}.st3,.st7{fill:#fff}</style><g id="Layer_1"><g id="Layer_5"><linearGradient id="SVGID_1_" gradientUnits="userSpaceOnUse" x1="1009.819" y1="376.654" x2="926.618" y2="66.143"><stop offset="0" style="stop-color:#00469e"></stop><stop offset="1" style="stop-color:#ce2e3a"></stop></linearGradient><circle cx="968.22" cy="221.4" r="158.94" style="fill:none;stroke:url(#SVGID_1_);stroke-width:3.5;stroke-miterlimit:10"></circle></g><g id="Layer_5_copy"><linearGradient id="SVGID_00000062899969398440033600000001554424672501283748_" gradientUnits="userSpaceOnUse" x1="1006.159" y1="365.211" x2="923.196" y2="55.587"><stop offset="0" style="stop-color:#00469e"></stop><stop offset="1" style="stop-color:#ce2e3a"></stop></linearGradient><circle style="fill:none;stroke:url(#SVGID_00000062899969398440033600000001554424672501283748_);stroke-width:3.5;stroke-miterlimit:10" cx="964.68" cy="210.4" r="158.48"></circle></g><g id="Layer_5_copy_2"><linearGradient id="SVGID_00000072268072006593555510000012020133476333151114_" gradientUnits="userSpaceOnUse" x1="995.076" y1="373.32" x2="912.053" y2="63.477"><stop offset="0" style="stop-color:#00469e"></stop><stop offset="1" style="stop-color:#ce2e3a"></stop></linearGradient><circle style="fill:none;stroke:url(#SVGID_00000072268072006593555510000012020133476333151114_);stroke-width:3.5;stroke-miterlimit:10" cx="953.56" cy="218.4" r="158.6"></circle></g><path class="st7" d="M650.98 768.13v-7.75c0-10.44-.02-20.88.01-31.31.01-6.37 1.47-7.78 7.97-7.85.89-.01 1.79 0 2.68 0h600.79c1.64 0 3.29-.06 4.92.06 3.87.29 5.7 2.06 5.77 5.94.12 5.81.04 11.63.04 17.45v23.21c1.67.1 3.09.25 4.51.25 10.29.02 20.58.01 30.87.01 1.19 0 2.4-.08 3.57.1 2.8.41 4.51 2.22 4.82 5.05.13 1.18.07 2.38.07 3.58v167.76c0 .6.01 1.19 0 1.79-.11 5.14-1.86 6.93-7.08 6.94-16.85.04-33.7.01-50.55.01h-45.63c-1.04 0-2.09.05-3.13-.02-3.58-.25-5.46-2.07-5.72-5.57-.1-1.34-.04-2.68-.04-4.02 0-24.16.08-48.31-.04-72.47-.07-14.16-4.7-26.65-14.91-36.7-26.31-25.87-75.17-18.16-86.26 22.56-1.23 4.53-1.6 9.41-1.63 14.14-.16 24.31-.07 48.61-.08 72.92 0 7.78-1.37 9.17-9.01 9.17h-62.63c-1.04 0-2.09.05-3.13-.02-3.57-.25-5.46-2.06-5.72-5.56-.1-1.34-.04-2.68-.04-4.02 0-26.54.06-53.09-.03-79.63-.05-16-5.28-30.12-16.2-41.94-24.88-26.91-68.88-25.27-90.84 3.41-7.96 10.4-11.94 22.22-11.94 35.35 0 27.59 0 55.17-.01 82.76 0 1.34.08 2.69-.05 4.02-.35 3.47-2.32 5.36-5.79 5.61-1.04.08-2.09.03-3.13.03h-62.63c-1.19 0-2.39.07-3.58-.05-3.25-.32-5.06-2.19-5.31-5.5-.1-1.33-.04-2.68-.04-4.02 0-24.16.08-48.31-.03-72.47-.06-14.16-4.68-26.66-14.88-36.71-26.29-25.9-75.1-18.18-86.37 22.46-1.29 4.64-1.64 9.37-1.63 14.16.03 24.16-.07 48.31.07 72.47.04 6.67-.6 9.83-9.92 9.76-30.87-.25-61.73-.09-92.6-.1-1.34 0-2.69.08-4.02-.05-3.26-.3-5.06-2.18-5.32-5.49-.09-1.19-.04-2.38-.04-3.58V777.41c0-.89-.02-1.79.01-2.68.16-4.56 2-6.48 6.6-6.53 7.45-.08 14.91-.02 22.37-.02 4.77-.05 9.52-.05 14.89-.05zM961.85 649.63H564.18c-1.64 0-3.28.06-4.92-.03-3.88-.23-6.31-2.38-6.36-5.54-.05-2.91 2.2-5.16 5.77-5.7 5.6-.86 11.2-1.63 16.8-2.52 41.38-6.52 81.4-17.88 120.17-33.7 19.88-8.11 39.22-17.37 57.97-27.83 2.69-1.5 5.38-2.18 8.48-2.18 133.15.05 266.31.05 399.46 0 3.09 0 5.79.65 8.49 2.15 48.93 27.19 100.87 46.33 155.71 57.51 12.69 2.59 25.54 4.37 38.33 6.46 4.69.77 6.84 2.69 6.56 6.23-.26 3.36-2.53 5.02-7.09 5.15-1.49.04-2.98.01-4.47.01-132.41-.01-264.82-.01-397.23-.01zM961.61 500.58H607.35c-1.49 0-2.99.09-4.47-.06-2.94-.3-5.04-2.49-5.21-5.23-.16-2.49 1.51-4.95 4.24-5.56 3.19-.71 6.46-1.1 9.7-1.56 65.72-9.44 127.61-30.32 185.76-62.31 3.24-1.78 6.44-2.67 10.16-2.67 102.88.06 205.76.06 308.63 0 3.71 0 6.92.86 10.16 2.65 50.08 27.62 103.16 47.02 159.34 57.81 10.96 2.11 22.04 3.63 33.06 5.43 1.18.19 2.38.35 3.5.73 2.61.9 4 3.23 3.67 5.93-.3 2.45-2.08 4.38-4.65 4.72-1.61.21-3.27.11-4.91.11-118.25.01-236.49.01-354.72.01zM1027.06 180.76c-1.38.49-2.19.84-3.05 1.07-11.05 3.02-22.1 6.02-33.57 9.14-.73-1.54-1.38-2.98-2.08-4.4-3.56-7.23-9.64-10.81-17.43-11.47-2.27-.19-4.81.36-6.92 1.27-4.92 2.1-5.91 7.32-1.86 10.8 3 2.58 6.58 4.6 10.13 6.43 4.62 2.39 9.51 4.27 14.21 6.51 5.38 2.56 10.78 5.1 16 7.96 6.33 3.46 11.8 8.01 16.45 13.59 11.23 13.46 10.38 30.62 3.78 42.76-6.1 11.21-15.64 18.27-27.71 21.81-12.1 3.54-24.39 3.65-36.7.91-11.79-2.62-21.36-8.84-29.15-17.96-4.98-5.84-8.86-12.33-11.57-19.51-.41-1.08-.66-2.21-1.09-3.68 12.02-3.23 23.75-6.39 35.53-9.56 1.33 2.42 2.34 4.58 3.62 6.56 5.23 8.08 12.42 12.77 22.33 12.26 2.17-.11 4.48-.68 6.4-1.67 4.97-2.56 5.77-8.5 1.74-12.36-1.48-1.42-3.28-2.61-5.12-3.54-3.18-1.62-6.44-3.11-9.78-4.37-9.37-3.53-18.39-7.82-26.96-12.94-4.05-2.43-7.9-5.39-11.3-8.67-13.36-12.84-14.67-34.03-3.96-48.65 7.48-10.21 17.59-16.51 29.76-19.23 13.62-3.05 26.97-1.9 39.68 4.3 13.97 6.78 23.17 17.79 28.62 32.64zM871.02 237.25c12.54 3.26 24.6 6.4 36.91 9.6-.35 1.12-.52 1.97-.86 2.75-9.09 20.54-24.59 33.26-46.57 37.92-11.28 2.39-22.54 1.89-33.63-1.18-17.68-4.89-30.4-15.92-38.87-31.99-7.74-14.7-9.74-30.5-8.49-46.86.61-7.92 2.18-15.63 5.1-23.04 10.77-27.43 34.72-43.13 64.21-42.15 24.4.81 42.54 11.94 54.66 33.03.59 1.03 1.11 2.11 1.62 3.18.12.25.08.58.18 1.38-12.3 3.45-24.74 6.62-37.89 9.94-.42-.66-.82-1.47-1.38-2.16-7.44-9.11-23.15-10.7-32.49-6.01-4.13 2.07-7.23 5.2-9.58 9.12-2.71 4.55-4.28 9.5-4.98 14.72-1.12 8.34-1.14 16.66 1.27 24.81 6.77 22.84 29.06 24.48 42.95 15.86 3.36-2.07 5.78-5.08 7.84-8.92zM1084.06 250.1h58.76v35.8h-96.36V144.97h37.6c0 6.39-.02 11.91-.01 17.67.02 5.82 0 11.63 0 17.45V231.99c.01 5.79.01 11.59.01 18.11zM1044.1 536c0-3.58-.03-7.15.02-10.73.01-1.18.04-2.41.35-3.53.68-2.47 2.87-4.09 5.25-4.11 2.4-.02 4.59 1.55 5.33 4.01.29.98.37 2.05.37 3.08.03 7.75.02 15.5.01 23.25 0 .6.02 1.2-.06 1.79-.43 3.21-2.67 5.36-5.55 5.39-2.9.03-5.25-2.08-5.62-5.29-.2-1.77-.09-3.57-.09-5.36-.02-2.84-.01-5.67-.01-8.5zM1160.42 536.44c0-3.73-.03-7.45.02-11.18.01-1.18.04-2.41.35-3.53.69-2.48 2.86-4.09 5.25-4.11 2.4-.02 4.6 1.55 5.32 4.02.32 1.12.37 2.35.38 3.53.03 7.45.02 14.9.01 22.36 0 .74.04 1.5-.06 2.23-.43 3.21-2.67 5.36-5.55 5.38-2.9.02-5.26-2.09-5.61-5.29-.21-1.92-.09-3.87-.09-5.81-.03-2.53-.02-5.07-.02-7.6zM1070.94 685.1c0-3.72-.03-7.45.02-11.17.02-1.17.1-2.4.46-3.5.76-2.36 2.63-3.64 5.03-3.71 2.57-.07 4.62 1.3 5.39 3.83.34 1.11.41 2.34.41 3.51.03 7.6.05 15.19 0 22.79-.03 4.58-2.04 7.16-5.49 7.26-3.62.1-5.76-2.58-5.81-7.39-.04-3.88-.01-7.75-.01-11.62zM1234.39 685.64c0 3.72.05 7.45-.03 11.17-.03 1.31-.18 2.69-.61 3.92-.77 2.19-2.59 3.21-4.83 3.36-2.3.15-4.42-1.16-5.23-3.42-.44-1.22-.58-2.61-.59-3.92-.05-7.6-.03-15.19-.02-22.79 0-.89-.01-1.8.17-2.66.59-2.8 2.6-4.49 5.29-4.58 2.87-.09 5.09 1.67 5.68 4.64.2 1.01.16 2.07.17 3.11.01 3.73 0 7.45 0 11.17zM763.11 536.6c0 4.17-.02 8.34.01 12.51.02 2.07-.62 3.79-2.37 5.01-3.2 2.23-7.62.58-8.46-3.22-.25-1.14-.19-2.37-.19-3.56-.02-7.3-.01-14.6 0-21.89 0-1.04-.05-2.1.11-3.12.44-2.83 2.86-4.82 5.62-4.7 2.6.11 4.77 2.02 5.19 4.68.16 1.02.11 2.08.11 3.12 0 3.73-.01 7.45-.02 11.17.01 0 0 0 0 0zM879.45 536.22c0 3.87.01 7.74-.01 11.62-.01 1.04.02 2.11-.19 3.11-.52 2.4-2.7 4.1-5.14 4.18-2.62.08-4.98-1.7-5.51-4.28-.2-1.01-.17-2.07-.17-3.11-.01-7.6-.01-15.19 0-22.79 0-.89-.03-1.8.11-2.67.44-2.64 2.64-4.55 5.23-4.64 2.77-.09 5.15 1.89 5.58 4.75.15 1.02.1 2.08.11 3.12-.01 3.56-.01 7.14-.01 10.71zM700.45 685.36c0 4.46.16 8.93-.05 13.38-.18 3.93-3.61 6.22-7.16 5.04-2.37-.79-3.73-2.49-3.74-4.98-.05-8.92-.11-17.85.02-26.77.05-3.28 2.36-5.29 5.41-5.31 3.05-.02 5.34 1.99 5.46 5.26.19 4.45.06 8.92.06 13.38zM841.61 685.34c0-4.46-.11-8.93.04-13.38.09-2.78 1.74-4.56 4.16-5.09 2.37-.52 4.65.27 5.81 2.28.56.98.92 2.22.93 3.35.07 8.63.11 17.25 0 25.88-.04 3.5-2.4 5.75-5.52 5.72-3.1-.03-5.33-2.28-5.43-5.82-.12-4.31-.03-8.63-.03-12.94h.04z"></path></g></svg>