<?xml version="1.0" encoding="UTF-8"?>
<svg id="Layer_1" xmlns="http://www.w3.org/2000/svg" viewBox="0 0 283.46 28.35">
  <defs>
    <style>
      .cls-1 {
        fill: #cd2e3a;
      }

      .cls-2 {
        fill: #0047a0;
      }
    </style>
  </defs>
  <polyline class="cls-1" points="182.28 20 283.46 20 283.46 18.33 269.6 15.52 257.09 11.44 241.51 8.12 229.51 4.54 208.83 0 187.89 14.17 182.28 20"/>
  <polyline class="cls-2" points="182.28 20 179.47 22.93 171.04 22.16 164.91 28.35 147.81 24.71 140.65 20"/>
  <polyline class="cls-1" points="140.65 20 137.34 17.82 133.95 20"/>
  <polyline class="cls-1" points="34.32 20 32.15 15.97 24.74 14.17 20.15 11.95 12.23 18.33 8.91 14.17 3.55 18.07 0 20 34.32 20"/>
  <polyline class="cls-2" points="45.93 20 35.21 21.65 34.32 20"/>
  <polyline class="cls-1" points="119.86 20 115.64 17.05 105.43 12.2 97.77 6.07 84.74 14.17 80.66 15.78 74.79 16.8 55.13 18.59 45.93 20"/>
  <polyline class="cls-2" points="133.95 20 126.62 24.71 119.86 20"/>
</svg>